<svg xmlns="http://www.w3.org/2000/svg" width="43" height="55" viewBox="0 0 43 55" fill="none">
  <path d="M17.591 35.5333L10.5741 28.5164L7.81824 31.2723L17.591 41.0451L35.1819 23.4542L32.426 20.6787L17.591 35.5333Z" fill="white"/>
  <path d="M39.0909 5.86364H33.2273V3.90909C33.2273 2.87234 32.8154 1.87804 32.0823 1.14495C31.3492 0.411849 30.3549 0 29.3182 0H13.6818C12.6451 0 11.6508 0.411849 10.9177 1.14495C10.1846 1.87804 9.77273 2.87234 9.77273 3.90909V5.86364H3.90909C2.87234 5.86364 1.87804 6.27549 1.14495 7.00858C0.411849 7.74168 0 8.73597 0 9.77273V50.8182C0 51.8549 0.411849 52.8492 1.14495 53.5823C1.87804 54.3154 2.87234 54.7273 3.90909 54.7273H39.0909C40.1277 54.7273 41.122 54.3154 41.8551 53.5823C42.5882 52.8492 43 51.8549 43 50.8182V9.77273C43 8.73597 42.5882 7.74168 41.8551 7.00858C41.122 6.27549 40.1277 5.86364 39.0909 5.86364ZM13.6818 3.90909H29.3182V11.7273H13.6818V3.90909ZM39.0909 50.8182H3.90909V9.77273H9.77273V15.6364H33.2273V9.77273H39.0909V50.8182Z" fill="white"/>
</svg>