<svg xmlns="http://www.w3.org/2000/svg" width="57" height="57" viewBox="0 0 57 57" fill="none">
  <path d="M54.0593 0L35.9987 6.76012L42.4804 10.8333C30.9015 25.3673 14.152 34.3197 0 37.7272L4.00911 45.0064C19.9108 39.8402 36.7461 30.5213 47.5899 14.0576L52.5277 17.1598L54.0593 0ZM55.0028 14.2531L54.4147 20.946L48.129 16.9889C47.9084 17.3186 47.6756 17.6362 47.4428 17.9659V57H57V14.2531H55.0028ZM36.5501 29.8862C34.994 31.2297 33.3889 32.4999 31.7592 33.6968V57H41.3164V29.8862H36.5501ZM21.3934 40.1455C19.629 41.0737 17.8646 41.9286 16.0757 42.7347V57H25.6328V40.1455H21.3934ZM0.39209 45.5194V57H9.94927V45.5194H9.25331C7.43745 46.1911 5.62281 46.814 3.8192 47.388L2.95415 47.6567L1.77788 45.5194H0.39209Z" fill="white"/>
</svg>